<svg width="534" height="534" viewBox="0 0 534 534" fill="none" xmlns="http://www.w3.org/2000/svg">
<g clip-path="url(#clip0_69_4239)">
<path d="M-58.0469 442.032L102.319 508.39C240.279 620.289 313.362 617.761 436.876 508.39L588.947 442.032L265.45 118.534L-58.0469 442.032Z" fill="black" stroke="black" stroke-width="1.04297"/>
<path d="M268.219 444.797L102.323 505.626V367.379H431.35V505.626L268.219 444.797Z" fill="white"/>
<path d="M265.448 298.255V115.77L591.71 442.032C489.961 357.978 330.885 312.08 265.448 298.255Z" fill="#4A4B4C"/>
<path d="M265.448 298.255V115.77L591.71 442.032C489.961 357.978 330.885 312.08 265.448 298.255Z" stroke="#4A4B4C"/>
<path d="M373.832 383.02C380.683 390.665 384.216 400.719 383.655 410.97C383.093 421.221 378.482 430.829 370.836 437.68C363.191 444.532 353.137 448.065 342.886 447.503C332.635 446.942 323.027 442.331 316.176 434.685L345.004 408.852L373.832 383.02Z" fill="black"/>
<path d="M166.86 383.02C160.008 390.665 156.475 400.719 157.037 410.97C157.598 421.221 162.209 430.829 169.855 437.68C177.501 444.532 187.555 448.065 197.806 447.503C208.057 446.942 217.665 442.331 224.516 434.685L195.688 408.852L166.86 383.02Z" fill="black"/>
</g>
<defs>
<clipPath id="clip0_69_4239">
<rect width="534" height="534" rx="267" fill="white"/>
</clipPath>
</defs>
</svg>
